<svg width="50" height="50" viewBox="0 0 50 50" fill="none" xmlns="http://www.w3.org/2000/svg">
<circle cx="25" cy="25" r="25" fill="#6EA4FC"/>
<path d="M14.7646 20.2338L14.6157 20.0156H14.3516H14H13.5V20.5156C13.5 21.0129 13.6107 21.5153 13.8192 22.0193L13.8192 22.0193L13.8217 22.0251C14.0188 22.485 14.2357 22.8956 14.4744 23.2536C14.4745 23.2537 14.4745 23.2538 14.4746 23.2539L20.4236 32.2008C20.5025 32.3266 20.5889 32.4523 20.6777 32.5411L20.7127 32.5761L20.7539 32.6035C20.9299 32.7208 21.1355 32.7344 21.2656 32.7344C21.5529 32.7344 21.8211 32.6268 22.0184 32.3979C22.1418 32.2567 22.2561 32.1071 22.3613 31.9492L22.4453 31.8233V31.6719C22.4453 31.5236 22.4592 31.2842 22.4901 30.9437L22.4903 30.9418C22.5219 30.5788 22.5533 30.1695 22.5848 29.7141C22.6159 29.2624 22.647 28.7954 22.6782 28.3129C22.7247 27.8158 22.7637 27.3486 22.795 26.9116C22.8417 26.475 22.8808 26.0761 22.9122 25.7152C22.9432 25.3586 22.9729 25.1123 22.9997 24.9644L23.0041 24.9406L23.0061 24.9165C23.0201 24.7481 23.0488 24.5226 23.0939 24.2364C23.1565 23.9229 23.2115 23.6241 23.2588 23.34C23.2998 23.0939 23.3402 22.8822 23.3798 22.704L29.6826 31.664C29.7322 31.7457 29.7841 31.8234 29.8376 31.8889C29.8662 31.9239 29.9023 31.9639 29.9455 32.0014C29.9846 32.0353 30.0552 32.0897 30.1544 32.1228L30.1726 32.1289L30.1912 32.1335C30.3198 32.1657 30.485 32.1719 30.6406 32.1719C30.7739 32.1719 30.9069 32.1623 31.0395 32.1434C31.2189 32.1178 31.3764 32.0283 31.4905 31.8889C31.5919 31.7649 31.6418 31.6232 31.6677 31.5L33.8453 22.532L33.8453 22.5321L33.8475 22.5225C33.9243 22.1766 34.0877 21.8152 34.3533 21.4375C34.6619 21.0055 34.9703 20.5892 35.2784 20.1887C35.6123 19.7593 35.9084 19.3513 36.166 18.9649L36.1661 18.9649L36.1711 18.957C36.446 18.5275 36.625 18.0883 36.625 17.6562C36.625 17.4254 36.5931 17.1814 36.4824 16.9705C36.3883 16.7604 36.2121 16.641 36.051 16.5796C35.8883 16.5176 35.7084 16.5 35.5391 16.5C35.3586 16.5 35.1686 16.5758 35.0313 16.6368L35.0209 16.6415L35.0108 16.6465C34.9354 16.6842 34.8614 16.7258 34.7953 16.772C34.7356 16.8138 34.65 16.8815 34.584 16.9805C34.4738 17.1457 34.3224 17.4171 34.1348 17.7765C33.9459 18.1387 33.7492 18.5241 33.545 18.9326L33.5449 18.9326L33.5414 18.9399C33.3551 19.3282 33.1687 19.7086 32.9825 20.0811L32.9824 20.081L32.9786 20.089C32.8066 20.4486 32.6831 20.7195 32.6139 20.8924L32.6063 20.9115L32.6002 20.9311C32.5387 21.131 32.438 21.4488 32.2974 21.8861C32.1564 22.3248 31.9998 22.818 31.8277 23.3657L31.8275 23.3657L31.8239 23.3783C31.6673 23.9265 31.5029 24.5136 31.3308 25.1395C31.16 25.745 30.9893 26.3269 30.8187 26.8851L30.8186 26.8851L30.8161 26.8939L30.8152 26.8971L30.8143 26.9003L30.8134 26.9035L30.8125 26.9067L30.8115 26.9099L30.8106 26.9131L30.8097 26.9163L30.8088 26.9195L30.8079 26.9227L30.807 26.9259L30.8061 26.9291L30.8052 26.9323L30.8042 26.9354L30.8033 26.9386L30.8024 26.9418L30.8015 26.945L30.8006 26.9482L30.7997 26.9514L30.7988 26.9545L30.7979 26.9577L30.797 26.9609L30.7961 26.9641L30.7952 26.9673L30.7942 26.9704L30.7933 26.9736L30.7924 26.9768L30.7915 26.98L30.7906 26.9831L30.7897 26.9863L30.7888 26.9895L30.7879 26.9926L30.787 26.9958L30.7861 26.999L30.7852 27.0021L30.7843 27.0053L30.7834 27.0084L30.7825 27.0116L30.7816 27.0148L30.7807 27.0179L30.7798 27.0211L30.7789 27.0242L30.778 27.0274L30.7771 27.0305L30.7762 27.0337L30.7753 27.0368L30.7744 27.04L30.7735 27.0431L30.7726 27.0463L30.7717 27.0494L30.7708 27.0525L30.7699 27.0557L30.769 27.0588L30.7681 27.062L30.7672 27.0651L30.7663 27.0682L30.7654 27.0714L30.7645 27.0745L30.7636 27.0776L30.7627 27.0808L30.7618 27.0839L30.7609 27.087L30.76 27.0902L30.7591 27.0933L30.7583 27.0964L30.7574 27.0995L30.7565 27.1026L30.7556 27.1058L30.7547 27.1089L30.7538 27.112L30.7529 27.1151L30.752 27.1182L30.7511 27.1214L30.7502 27.1245L30.7493 27.1276L30.7485 27.1307L30.7476 27.1338L30.7467 27.1369L30.7458 27.14L30.7449 27.1431L30.744 27.1462L30.7431 27.1493L30.7422 27.1524L30.7414 27.1555L30.7405 27.1586L30.7396 27.1617L30.7387 27.1648L30.7378 27.1679L30.7369 27.171L30.736 27.1741L30.7352 27.1772L30.7343 27.1803L30.7334 27.1834L30.7325 27.1865L30.7316 27.1896L30.7308 27.1927L30.7299 27.1957L30.729 27.1988L30.7281 27.2019L30.7272 27.205L30.7263 27.2081L30.7255 27.2111L30.7246 27.2142L30.7237 27.2173L30.7228 27.2204L30.722 27.2234L30.7211 27.2265L30.7202 27.2296L30.7193 27.2327L30.7184 27.2357L30.7176 27.2388L30.7167 27.2419L30.7158 27.2449L30.7149 27.248L30.7141 27.2511L30.7132 27.2541L30.7123 27.2572L30.7114 27.2602L30.7106 27.2633L30.7097 27.2663L30.7088 27.2694L30.708 27.2725L30.7071 27.2755L30.7062 27.2786L30.7053 27.2816L30.7045 27.2847L30.7036 27.2877L30.7027 27.2907L30.7019 27.2938L30.701 27.2968L30.7001 27.2999L30.6992 27.3029L30.6984 27.306L30.6975 27.309L30.6966 27.312L30.6958 27.3151L30.6949 27.3181L30.694 27.3211L30.6932 27.3242L30.6923 27.3272L30.6914 27.3302L30.6906 27.3333L30.6897 27.3363L30.6888 27.3393L30.688 27.3423L30.6871 27.3454L30.6863 27.3484L30.6854 27.3514L30.6845 27.3544L30.6837 27.3574L30.6828 27.3605L30.6819 27.3635L30.6811 27.3665L30.6802 27.3695L30.6794 27.3725L30.6785 27.3755L30.6776 27.3785L30.6768 27.3815L30.6759 27.3846L30.6751 27.3876L30.6742 27.3906L30.6733 27.3936L30.6725 27.3966L30.6716 27.3996L30.6708 27.4026L30.6699 27.4056L30.6691 27.4086L30.6682 27.4116L30.6674 27.4146L30.6665 27.4175L30.6656 27.4205L30.6648 27.4235L30.6639 27.4265L30.6631 27.4295L30.6622 27.4325L30.6614 27.4355L30.6605 27.4385L30.6597 27.4415L30.6588 27.4444L30.658 27.4474L30.6571 27.4504L30.6563 27.4534L30.6554 27.4563L30.6546 27.4593L30.6537 27.4623L30.6529 27.4653L30.652 27.4682L30.6512 27.4712L30.6503 27.4742L30.6495 27.4772L30.6486 27.4801L30.6478 27.4831L30.6469 27.4861L30.6461 27.489L30.6452 27.492L30.6444 27.4949L30.6435 27.4979L30.6427 27.5009L30.6418 27.5038L30.641 27.5068L30.6402 27.5097L30.6393 27.5127L30.6385 27.5156L30.6376 27.5186L30.6368 27.5215L30.6359 27.5245L30.6351 27.5274L30.6343 27.5304L30.6334 27.5333L30.6326 27.5363L30.6317 27.5392L30.6309 27.5421L30.6301 27.5451L30.6292 27.548L30.6284 27.551L30.6275 27.5539L30.6267 27.5568L30.6259 27.5598L30.625 27.5627L30.6242 27.5656L30.6234 27.5686L30.6225 27.5715L30.6217 27.5744L30.6208 27.5773L30.62 27.5803L30.6192 27.5832L30.6183 27.5861L30.6175 27.589L30.6167 27.5919L30.6158 27.5949L30.615 27.5978L30.6142 27.6007L30.6133 27.6036L30.6125 27.6065L30.6117 27.6094L30.6108 27.6123L30.61 27.6153L30.6092 27.6182L30.6083 27.6211L30.6075 27.624L30.6067 27.6269L30.6059 27.6298L30.605 27.6327L30.6042 27.6356L30.6034 27.6385L30.6025 27.6414L30.6017 27.6443L30.6009 27.6472L30.6001 27.6501L30.5992 27.653L30.5984 27.6559L30.5976 27.6588L30.5968 27.6616L30.5959 27.6645L30.5951 27.6674L30.5943 27.6703L30.5935 27.6732L30.5926 27.6761L30.5918 27.679L30.591 27.6818L30.5902 27.6847L30.5893 27.6876L30.5885 27.6905L30.5877 27.6933L30.5869 27.6962L30.5861 27.6991L30.5852 27.702L30.5844 27.7048L30.5836 27.7077L30.5828 27.7106L30.582 27.7134L30.5811 27.7163L30.5803 27.7192L30.5795 27.722L30.5787 27.7249L30.5779 27.7278L30.577 27.7306L30.5762 27.7335L30.5754 27.7363L30.5746 27.7392L30.5738 27.742L30.573 27.7449L30.5722 27.7477L30.5713 27.7506L30.5705 27.7534L30.5697 27.7563L30.5689 27.7591L30.5681 27.762L30.5673 27.7648L30.5665 27.7677L30.5656 27.7705L30.5648 27.7734L30.564 27.7762L30.5632 27.779L30.5624 27.7819L30.5616 27.7847L30.5608 27.7875L30.56 27.7904L30.5592 27.7932L30.5584 27.796L30.5575 27.7989L30.5567 27.8017L30.5559 27.8045L30.5551 27.8073L30.5543 27.8102L30.5535 27.813L30.5527 27.8158L30.5519 27.8186L30.5511 27.8215L30.5503 27.8243L30.5495 27.8271L30.5487 27.8299L30.5479 27.8327L30.5471 27.8355L30.5463 27.8383L30.5455 27.8412L30.5447 27.844L30.5439 27.8468L30.5431 27.8496L30.5423 27.8524L30.5415 27.8552L30.5407 27.858L30.5399 27.8608L30.5391 27.8636L30.5383 27.8664L30.5375 27.8692L30.5367 27.872L30.5359 27.8748L30.5351 27.8776L30.5343 27.8804L30.5335 27.8832L30.5327 27.886L30.5319 27.8887L30.5311 27.8915L30.5303 27.8943L30.5295 27.8971L30.5287 27.8999L30.5279 27.9027L30.5271 27.9055L30.5263 27.9082L30.5255 27.911L30.5247 27.9138L30.5239 27.9166L30.5231 27.9193L30.5223 27.9221L30.5215 27.9249L30.5207 27.9277L30.52 27.9304L30.5192 27.9332L30.5184 27.936L30.5176 27.9387L30.5168 27.9415L30.516 27.9443L30.5152 27.947L30.5144 27.9498L30.5136 27.9526L30.5128 27.9553L30.5121 27.9581L30.5113 27.9608L30.5105 27.9636L30.5097 27.9663L30.5089 27.9691L30.5081 27.9718L30.5073 27.9746L30.5066 27.9773L30.5058 27.9801L30.505 27.9828L30.5042 27.9856L30.5034 27.9883L30.5026 27.9911L30.5018 27.9938L30.5011 27.9966L30.5003 27.9993L30.4995 28.002L30.4987 28.0048L30.4979 28.0075L30.4972 28.0102L30.4964 28.013L30.4956 28.0157L30.4948 28.0184L30.494 28.0212L30.4933 28.0239L30.4925 28.0266L30.4917 28.0293L30.4909 28.0321L30.4901 28.0348L30.4894 28.0375L30.4886 28.0402L30.4878 28.043L30.487 28.0457L30.4863 28.0484L30.4855 28.0511L30.4847 28.0538L30.4839 28.0565L30.4832 28.0592L30.4824 28.062L30.4816 28.0647L30.4808 28.0674L30.4801 28.0701L30.4793 28.0728L30.4785 28.0755L30.4777 28.0782L30.477 28.0809L30.4762 28.0836L30.4754 28.0863L30.4747 28.089L30.4739 28.0917L30.4731 28.0944L30.4723 28.0971L30.4716 28.0998L30.4708 28.1025L30.47 28.1052L30.4693 28.1078L30.4685 28.1105L30.4677 28.1132L30.467 28.1159L30.4662 28.1186L30.4654 28.1213L30.4647 28.124L30.4639 28.1266L30.4631 28.1293L30.4624 28.132L30.4616 28.1347L30.4608 28.1373L30.4601 28.14L30.4593 28.1427L30.4585 28.1454L30.4578 28.148L30.457 28.1507L30.4563 28.1534L30.4555 28.156L30.4547 28.1587L30.454 28.1614L30.4532 28.164L30.4525 28.1667L30.4517 28.1694L30.4509 28.172L30.4502 28.1747L30.4494 28.1773L30.4487 28.18L30.4479 28.1826L30.4471 28.1853L30.4464 28.1879L30.4456 28.1906L30.4449 28.1932L30.4441 28.1959L30.4434 28.1985L30.4426 28.2012L30.4418 28.2038L30.4411 28.2065L30.4403 28.2091L30.4396 28.2118L30.4388 28.2144L30.4381 28.217L30.4373 28.2197L30.4366 28.2223L30.4358 28.2249L30.4351 28.2276L30.4343 28.2302L30.4336 28.2328L30.4328 28.2355L30.4321 28.2381L30.4313 28.2407L30.4306 28.2433L30.4298 28.246L30.4291 28.2486L30.4283 28.2512L30.4276 28.2538L30.4268 28.2564L30.4261 28.2591L30.4253 28.2617L30.4246 28.2643L30.4238 28.2669L30.4231 28.2695L30.4223 28.2721L30.4216 28.2747L30.4208 28.2774L30.4201 28.28L30.4193 28.2826L30.4186 28.2852L30.4179 28.2878L30.4171 28.2904L30.4164 28.293L30.4156 28.2956L30.4149 28.2982L30.4141 28.3008L30.4134 28.3034L30.4127 28.306L30.4119 28.3086L30.4112 28.3112L30.4104 28.3138L30.4097 28.3163L30.409 28.3189L30.4082 28.3215L30.4075 28.3241L30.4067 28.3267L30.406 28.3293L30.4053 28.3319L30.4045 28.3344L30.4038 28.337L30.4031 28.3396L30.4023 28.3422L30.4016 28.3448L30.4008 28.3473L30.4001 28.3499L30.3994 28.3525L30.3986 28.355L30.3979 28.3576L30.3972 28.3602L30.3964 28.3628L30.3957 28.3653L30.395 28.3679L30.3942 28.3705L30.3919 28.3785L30.3899 28.3865C30.3141 28.6897 30.2526 28.9433 30.2057 29.1461C29.6749 28.5231 29.1586 27.8698 28.6569 27.1859C28.1612 26.4733 27.6732 25.7529 27.1929 25.0247C26.7265 24.294 26.2678 23.571 25.8169 22.8559C25.3781 22.1195 24.9462 21.4361 24.5211 20.806C24.4558 20.7008 24.4076 20.6089 24.3736 20.5296C24.3163 20.3958 24.2458 20.2699 24.159 20.1567C24.0458 19.9846 23.8828 19.8688 23.6972 19.8069C23.5317 19.7517 23.3466 19.7344 23.1641 19.7344C23.0184 19.7344 22.867 19.7435 22.7104 19.7609C22.5466 19.7791 22.3782 19.8444 22.2421 19.9804C22.1107 20.1119 22.0466 20.2723 22.0175 20.4176L22.0159 20.4255L22.0146 20.4334L22.0144 20.4345L22.0142 20.4356L22.0141 20.4367L22.0139 20.4378L22.0137 20.439L22.0135 20.4401L22.0133 20.4412L22.0131 20.4423L22.0129 20.4434L22.0128 20.4446L22.0126 20.4457L22.0124 20.4468L22.0122 20.448L22.012 20.4491L22.0118 20.4503L22.0116 20.4514L22.0114 20.4526L22.0112 20.4537L22.011 20.4549L22.0108 20.456L22.0107 20.4572L22.0105 20.4584L22.0103 20.4595L22.0101 20.4607L22.0099 20.4619L22.0097 20.4631L22.0095 20.4643L22.0093 20.4654L22.0091 20.4666L22.0089 20.4678L22.0087 20.469L22.0085 20.4702L22.0083 20.4714L22.0081 20.4726L22.0079 20.4738L22.0077 20.4751L22.0075 20.4763L22.0073 20.4775L22.0071 20.4787L22.0069 20.4799L22.0067 20.4812L22.0065 20.4824L22.0062 20.4836L22.006 20.4849L22.0058 20.4861L22.0056 20.4874L22.0054 20.4886L22.0052 20.4899L22.005 20.4911L22.0048 20.4924L22.0046 20.4936L22.0044 20.4949L22.0042 20.4962L22.0039 20.4974L22.0037 20.4987L22.0035 20.5L22.0033 20.5013L22.0031 20.5026L22.0029 20.5038L22.0027 20.5051L22.0024 20.5064L22.0022 20.5077L22.002 20.509L22.0018 20.5103L22.0016 20.5116L22.0014 20.5129L22.0011 20.5143L22.0009 20.5156L22.0007 20.5169L22.0005 20.5182L22.0003 20.5195L22 20.5209L21.9998 20.5222L21.9996 20.5235L21.9994 20.5249L21.9992 20.5262L21.9989 20.5276L21.9987 20.5289L21.9985 20.5303L21.9983 20.5316L21.998 20.533L21.9978 20.5343L21.9976 20.5357L21.9973 20.5371L21.9971 20.5384L21.9969 20.5398L21.9967 20.5412L21.9964 20.5426L21.9962 20.544L21.996 20.5453L21.9957 20.5467L21.9955 20.5481L21.9953 20.5495L21.995 20.5509L21.9948 20.5523L21.9946 20.5537L21.9943 20.5551L21.9941 20.5565L21.9939 20.558L21.9936 20.5594L21.9934 20.5608L21.9931 20.5622L21.9929 20.5637L21.9927 20.5651L21.9924 20.5665L21.9922 20.568L21.992 20.5694L21.9917 20.5708L21.9915 20.5723L21.9912 20.5737L21.991 20.5752L21.9907 20.5767L21.9905 20.5781L21.9903 20.5796L21.99 20.5811L21.9898 20.5825L21.9895 20.584L21.9893 20.5855L21.989 20.587L21.9888 20.5884L21.9885 20.5899L21.9883 20.5914L21.988 20.5929L21.9878 20.5944L21.9875 20.5959L21.9873 20.5974L21.987 20.5989L21.9868 20.6004L21.9865 20.6019L21.9863 20.6034L21.986 20.605L21.9858 20.6065L21.9855 20.608L21.9853 20.6095L21.985 20.6111L21.9848 20.6126L21.9845 20.6141L21.9842 20.6157L21.984 20.6172L21.9837 20.6188L21.9835 20.6203L21.9832 20.6219L21.9829 20.6234L21.9827 20.625L21.9824 20.6266L21.9822 20.6281L21.9819 20.6297L21.9816 20.6313L21.9814 20.6329L21.9811 20.6344L21.9809 20.636L21.9806 20.6376L21.9803 20.6392L21.9801 20.6408L21.9798 20.6424L21.9795 20.644L21.9793 20.6456L21.979 20.6472L21.9787 20.6488L21.9785 20.6504L21.9782 20.652L21.9779 20.6536L21.9776 20.6553L21.9774 20.6569L21.9771 20.6585L21.9768 20.6601L21.9766 20.6618L21.9763 20.6634L21.976 20.6651L21.9757 20.6667L21.9755 20.6683L21.9752 20.67L21.9749 20.6717L21.9746 20.6733L21.9744 20.675L21.9741 20.6766L21.9738 20.6783L21.9735 20.68L21.9732 20.6816L21.973 20.6833L21.9727 20.685L21.9724 20.6867L21.9721 20.6884L21.9718 20.6901L21.9716 20.6918L21.9713 20.6934L21.971 20.6951L21.9707 20.6968L21.9704 20.6986L21.9701 20.7003L21.9699 20.702L21.9696 20.7037L21.9693 20.7054L21.969 20.7071L21.9687 20.7089L21.9684 20.7106L21.9681 20.7123L21.9678 20.714L21.9676 20.7158L21.9673 20.7175L21.967 20.7193L21.9667 20.721L21.9664 20.7228L21.9661 20.7245L21.9658 20.7263L21.9655 20.728L21.9652 20.7298L21.9649 20.7316L21.9646 20.7333L21.9643 20.7351L21.964 20.7369L21.9637 20.7387L21.9634 20.7404L21.9631 20.7422L21.9628 20.744L21.9626 20.7458L21.9623 20.7476L21.962 20.7494L21.9617 20.7512L21.9614 20.753L21.961 20.7548L21.9607 20.7566L21.9604 20.7585L21.9601 20.7603L21.9598 20.7621L21.9595 20.7639L21.9592 20.7657L21.9589 20.7676L21.9586 20.7694L21.9583 20.7712L21.958 20.7731L21.9577 20.7749L21.9574 20.7768L21.9571 20.7786L21.9568 20.7805L21.9565 20.7823L21.9562 20.7842L21.9558 20.7861L21.9555 20.7879L21.9552 20.7898L21.9549 20.7917L21.9546 20.7935L21.9543 20.7954L21.954 20.7973L21.9537 20.7992L21.9533 20.8011L21.953 20.803L21.9527 20.8049L21.9524 20.8068L21.9521 20.8087L21.9518 20.8106L21.9514 20.8125L21.9511 20.8144L21.9508 20.8163L21.9505 20.8182L21.9502 20.8201L21.9498 20.8221L21.9495 20.824L21.9492 20.8259L21.9489 20.8279L21.9486 20.8298L21.9482 20.8317L21.9479 20.8337L21.9476 20.8356L21.9473 20.8376L21.9469 20.8395L21.9466 20.8415L21.9463 20.8434L21.946 20.8454L21.9456 20.8474L21.9453 20.8493L21.945 20.8513L21.9446 20.8533L21.9443 20.8553L21.944 20.8573L21.9436 20.8592L21.9433 20.8612L21.943 20.8632L21.9427 20.8652L21.9423 20.8672L21.942 20.8692L21.9416 20.8712L21.9413 20.8732L21.941 20.8752L21.9406 20.8773L21.9403 20.8793L21.94 20.8813L21.9396 20.8833L21.9393 20.8853L21.939 20.8874L21.9386 20.8894L21.9383 20.8914L21.9379 20.8935L21.9376 20.8955L21.9373 20.8976L21.9369 20.8996L21.9366 20.9017L21.9362 20.9037L21.9359 20.9058L21.9355 20.9079L21.9352 20.9099L21.9349 20.912L21.9345 20.9141L21.9342 20.9161L21.9338 20.9182L21.9335 20.9203L21.9331 20.9224L21.9328 20.9245L21.9324 20.9266L21.9321 20.9287L21.9317 20.9308L21.9314 20.9329L21.931 20.935L21.9307 20.9371L21.9303 20.9392L21.93 20.9413L21.9296 20.9434L21.9293 20.9455L21.9289 20.9477L21.9286 20.9498L21.9282 20.9519L21.9278 20.954L21.9275 20.9562L21.9271 20.9583L21.9268 20.9605L21.9264 20.9626L21.9261 20.9648L21.9257 20.9669L21.9253 20.9691L21.925 20.9712L21.9246 20.9734L21.9243 20.9756L21.9239 20.9777L21.9235 20.9799L21.9232 20.9821L21.9228 20.9843L21.9224 20.9864L21.9221 20.9886L21.9217 20.9908L21.9214 20.993L21.921 20.9952L21.9206 20.9974L21.9203 20.9996L21.9199 21.0018L21.9195 21.004L21.9192 21.0062L21.9188 21.0084L21.9184 21.0106L21.918 21.0129L21.9177 21.0151L21.9173 21.0173L21.9169 21.0195L21.9166 21.0218L21.9162 21.024L21.9158 21.0263L21.9154 21.0285L21.9151 21.0307L21.9147 21.033L21.9143 21.0352L21.9139 21.0375L21.9136 21.0398L21.9132 21.042L21.9128 21.0443L21.9124 21.0466L21.912 21.0488L21.9117 21.0511L21.9113 21.0534L21.9109 21.0557L21.9105 21.0579L21.9101 21.0602L21.9098 21.0625L21.9094 21.0648L21.909 21.0671L21.9086 21.0694L21.9082 21.0717L21.9078 21.074L21.9075 21.0763L21.9071 21.0787L21.9067 21.081L21.9063 21.0833L21.9059 21.0856L21.9055 21.0879L21.9051 21.0903L21.9048 21.0926L21.9044 21.0949L21.904 21.0973L21.9036 21.0996L21.9032 21.102L21.9028 21.1043L21.9024 21.1067L21.902 21.109L21.9016 21.1114L21.9012 21.1137L21.9008 21.1161L21.9004 21.1185L21.9 21.1209L21.8996 21.1232L21.8993 21.1256L21.8989 21.128L21.8985 21.1304L21.8981 21.1328L21.8977 21.1351L21.8973 21.1375L21.8969 21.1399L21.8965 21.1423L21.8961 21.1447L21.8957 21.1472L21.8953 21.1496L21.8949 21.152L21.8945 21.1544L21.8941 21.1568L21.8936 21.1592L21.8932 21.1617L21.8928 21.1641L21.8924 21.1665L21.892 21.169L21.8916 21.1714L21.8912 21.1738L21.8908 21.1763L21.8904 21.1787L21.89 21.1812L21.8896 21.1836L21.8892 21.1861L21.8888 21.1886L21.8883 21.191L21.8879 21.1935L21.8875 21.196L21.8871 21.1984L21.8867 21.2009L21.8863 21.2034L21.8859 21.2059L21.8855 21.2084L21.885 21.2109L21.8846 21.2134L21.8842 21.2159L21.8838 21.2184L21.8834 21.2209L21.883 21.2234L21.8825 21.2259L21.8821 21.2284L21.8817 21.2309L21.8813 21.2334L21.8809 21.2359L21.8804 21.2385L21.88 21.241L21.8796 21.2435L21.8792 21.2461L21.8788 21.2486L21.8783 21.2512L21.8779 21.2537L21.8775 21.2562L21.8771 21.2588L21.8766 21.2614L21.8762 21.2639L21.8758 21.2665L21.8753 21.269L21.8749 21.2716L21.8745 21.2742L21.8741 21.2768L21.8736 21.2793L21.8732 21.2819L21.8728 21.2845L21.8723 21.2871L21.8719 21.2897L21.8715 21.2923L21.871 21.2949L21.8706 21.2975L21.8702 21.3001L21.8697 21.3027L21.8693 21.3053L21.8689 21.3079L21.8684 21.3105L21.868 21.3131L21.8676 21.3158L21.8671 21.3184L21.8667 21.321L21.8662 21.3236L21.8658 21.3263L21.8654 21.3289L21.8649 21.3316L21.8645 21.3342L21.864 21.3369L21.8636 21.3395L21.8632 21.3422L21.8627 21.3448L21.8623 21.3475L21.8618 21.3501L21.8614 21.3528L21.8609 21.3555L21.8605 21.3582L21.86 21.3608L21.8596 21.3635L21.8592 21.3662L21.8587 21.3689L21.8583 21.3716L21.8578 21.3743L21.8574 21.377L21.8569 21.3797L21.8565 21.3824L21.856 21.3851L21.8556 21.3878L21.8551 21.3905L21.8547 21.3932L21.8542 21.3959L21.8537 21.3987L21.8533 21.4014L21.8528 21.4041L21.8524 21.4068L21.8519 21.4096L21.8515 21.4123L21.851 21.4151L21.8506 21.4178C21.7729 21.8839 21.6874 22.3737 21.594 22.8871C21.4999 23.4049 21.4135 23.8995 21.3349 24.3709C21.2571 24.8378 21.2071 25.1757 21.1896 25.3688L21.1875 25.3914V25.4141V25.6599C21.1412 25.9861 21.0878 26.3915 21.0273 26.8755L21.0271 26.8755L21.0258 26.8893C20.9795 27.3675 20.9255 27.8377 20.8639 28.3C20.828 28.5604 20.7947 28.8027 20.7639 29.027L14.7646 20.2338Z" fill="white" stroke="white"/>
</svg>
