<svg width="442" height="724" viewBox="0 0 442 724" fill="none" xmlns="http://www.w3.org/2000/svg">
<path d="M612 370C612 228.063 496.937 113 355 113H257C115.063 113 6.67572e-06 228.063 6.67572e-06 370V467C6.67572e-06 608.937 115.063 724 257 724H355C496.937 724 612 608.937 612 467V370Z" fill="url(#paint0_linear_220_2)"/>
<path d="M667 228.5C667 102.303 564.697 0 438.5 0V0C312.303 0 210 102.303 210 228.5V228.5C210 354.697 312.303 457 438.5 457V457C564.697 457 667 354.697 667 228.5V228.5Z" fill="url(#paint1_linear_220_2)" fill-opacity="0.8"/>
<defs>
<linearGradient id="paint0_linear_220_2" x1="-6.68126" y1="412.293" x2="638.951" y2="365.864" gradientUnits="userSpaceOnUse">
<stop stop-color="#3B82F6" stop-opacity="0.1"/>
<stop offset="1" stop-color="#3B82F6" stop-opacity="0"/>
</linearGradient>
<linearGradient id="paint1_linear_220_2" x1="205.011" y1="223.858" x2="687.133" y2="189.243" gradientUnits="userSpaceOnUse">
<stop stop-color="#3B82F6" stop-opacity="0.1"/>
<stop offset="1" stop-color="#3B82F6" stop-opacity="0"/>
</linearGradient>
</defs>
</svg>
